<?xml version="1.0" standalone="no"?>
<!DOCTYPE svg PUBLIC "-//W3C//DTD SVG 20010904//EN"
 "http://www.w3.org/TR/2001/REC-SVG-20010904/DTD/svg10.dtd">
<svg version="1.0" xmlns="http://www.w3.org/2000/svg"
 width="1024.000000pt" height="1024.000000pt" viewBox="0 0 1024.000000 1024.000000"
 preserveAspectRatio="xMidYMid meet">
<metadata>
Created by potrace 1.11, written by Peter Selinger 2001-2013
</metadata>
<g transform="translate(0.000000,1024.000000) scale(0.100000,-0.100000)"
fill="#000000" stroke="none">
<path d="M0 5120 l0 -5120 5120 0 5120 0 0 5120 0 5120 -5120 0 -5120 0 0
-5120z m6954 1450 c21 -8 26 -16 26 -45 l0 -35 -70 0 c-62 0 -74 -3 -95 -25
-22 -21 -25 -33 -25 -90 l0 -65 65 0 65 0 0 -45 0 -45 -65 0 -65 0 0 -255 0
-255 -55 0 -55 0 0 255 0 255 -46 0 -45 0 3 43 c3 42 3 42 44 45 l41 3 5 78
c6 96 31 144 92 172 45 20 139 25 180 9z m-3524 -154 l0 -155 58 27 c48 23 71
27 144 27 72 0 91 -3 115 -21 55 -41 58 -57 61 -331 l3 -253 -55 0 -56 0 0
234 c0 287 2 282 -112 280 -40 -1 -91 -8 -113 -16 l-40 -15 -3 -242 -2 -241
-50 0 -50 0 0 430 0 430 50 0 50 0 0 -154z m1335 95 c50 -17 50 -18 53 -64 2
-26 -1 -47 -6 -47 -5 0 -29 7 -53 16 -28 11 -77 17 -134 18 -75 0 -97 -3 -132
-22 -89 -47 -123 -127 -123 -292 0 -166 34 -252 120 -300 39 -22 57 -25 135
-24 68 0 104 6 145 22 30 12 56 22 58 22 1 0 2 -22 2 -50 l0 -49 -66 -21 c-85
-26 -219 -27 -295 -3 -75 24 -158 107 -190 188 -21 53 -24 76 -24 210 0 132 3
157 23 206 40 99 108 160 217 195 60 19 210 17 270 -5z m1723 -33 l-3 -53 -52
-3 -53 -3 0 55 0 56 56 0 55 0 -3 -52z m650 0 l-3 -53 -50 0 -50 0 -3 53 -3
52 56 0 56 0 -3 -52z m-5776 31 c181 -39 268 -164 268 -389 0 -102 -15 -171
-53 -243 -35 -68 -71 -100 -147 -136 -52 -24 -66 -26 -242 -29 l-188 -4 0 399
c0 220 3 403 7 406 11 11 298 8 355 -4z m1688 -129 l0 -70 75 0 75 0 0 -45 0
-45 -75 0 -75 0 0 -195 c0 -185 1 -196 21 -216 18 -18 30 -21 80 -17 l59 4 0
-37 c0 -36 -2 -39 -42 -50 -83 -22 -174 7 -205 64 -15 27 -18 64 -21 240 l-3
207 -40 0 -39 0 0 45 0 45 40 0 40 0 0 70 0 70 55 0 55 0 0 -70z m3050 0 l0
-70 75 0 75 0 0 -45 0 -45 -75 0 -75 0 0 -195 c0 -185 1 -196 21 -216 18 -18
30 -21 80 -17 l59 4 0 -37 c0 -36 -2 -39 -42 -50 -78 -21 -171 6 -205 58 -16
23 -18 57 -21 240 l-4 213 -39 0 -39 0 0 45 0 45 40 0 40 0 0 70 0 70 55 0 55
0 0 -70z m2430 0 l0 -70 75 0 75 0 0 -45 0 -45 -75 0 -75 0 0 -200 0 -200 25
-16 c18 -12 40 -15 80 -12 l55 5 0 -38 c0 -36 -1 -37 -50 -49 -93 -22 -184 13
-207 80 -8 22 -12 107 -12 233 l-1 197 -40 0 -40 0 0 45 0 45 40 0 40 0 0 70
0 70 55 0 55 0 0 -70z m-6424 -84 c82 -38 114 -98 122 -228 l5 -88 -196 0
c-108 0 -198 -3 -200 -7 -10 -18 22 -106 49 -134 56 -59 188 -65 307 -14 15 6
17 1 17 -34 0 -41 -2 -43 -47 -63 -67 -30 -193 -36 -263 -13 -61 20 -114 64
-139 114 -62 121 -47 311 31 405 69 84 208 111 314 62z m578 -5 c69 -43 76
-71 76 -343 l0 -238 -44 0 c-39 0 -45 3 -50 26 l-7 27 -22 -21 c-32 -30 -71
-42 -135 -42 -67 0 -133 27 -157 64 -27 41 -37 102 -24 149 22 85 83 122 229
139 l100 12 0 52 c0 41 -5 59 -24 81 -23 26 -29 28 -103 28 -43 0 -96 -2 -118
-5 -40 -5 -40 -5 -43 32 -3 33 0 37 30 46 61 20 73 21 163 19 75 -2 97 -7 129
-26z m2617 2 c77 -40 110 -102 117 -224 l5 -89 -199 -2 -199 -3 3 -35 c5 -48
38 -103 74 -125 58 -34 190 -29 281 10 15 6 17 1 17 -34 0 -41 -2 -43 -47 -63
-67 -30 -193 -36 -263 -13 -104 35 -164 120 -176 252 -7 76 8 167 36 223 61
119 224 166 351 103z m547 -24 l3 -46 -63 -5 c-35 -3 -80 -14 -100 -24 l-38
-18 0 -233 0 -233 -55 0 -55 0 0 300 0 300 50 0 c49 0 50 -1 50 -30 0 -36 2
-36 39 -9 38 28 100 49 136 46 28 -2 30 -5 33 -48z m1815 35 l47 -16 0 -47 0
-48 -52 18 c-114 39 -214 14 -258 -64 -21 -36 -24 -55 -24 -137 0 -79 4 -102
23 -138 40 -78 150 -104 266 -63 l55 19 0 -42 c0 -41 -2 -44 -42 -62 -63 -28
-218 -27 -273 3 -54 29 -89 68 -116 128 -19 40 -23 68 -23 145 -1 170 53 260
183 306 50 18 158 17 214 -2z m458 5 c51 -17 96 -65 108 -115 6 -24 11 -137
11 -263 l0 -221 -45 0 c-39 0 -45 3 -51 25 -6 24 -8 24 -23 11 -66 -60 -216
-60 -283 1 -31 28 -51 97 -43 150 5 37 16 56 48 89 46 45 81 57 215 70 l72 7
0 51 c0 65 -19 92 -73 107 -40 11 -167 6 -202 -8 -12 -4 -15 4 -15 35 0 42 7
48 85 65 41 9 163 7 196 -4z m1001 1 c48 -14 94 -52 118 -100 20 -38 40 -139
40 -197 l0 -33 -200 0 -200 0 0 -28 c0 -15 10 -48 23 -72 42 -85 162 -114 287
-70 30 11 59 19 63 20 5 0 7 -17 5 -37 -3 -34 -8 -40 -52 -62 -58 -29 -172
-39 -242 -22 -69 18 -125 61 -159 123 -29 50 -30 59 -30 173 0 111 2 124 28
177 29 60 77 103 136 124 44 16 133 18 183 4z m-2634 -302 l2 -298 -55 0 -55
0 0 301 0 300 53 -3 52 -3 3 -297z m652 2 l0 -300 -55 0 -55 0 0 300 0 300 55
0 55 0 0 -300z m-2530 -1310 l0 -430 -55 0 -55 0 0 430 0 430 55 0 55 0 0
-430z m2770 -1 l0 -430 -47 3 c-42 3 -48 6 -51 26 -3 22 -5 23 -22 7 -54 -49
-184 -59 -266 -21 -95 44 -136 127 -137 276 -1 157 45 248 147 296 60 28 157
32 221 9 22 -8 41 -15 43 -15 1 0 2 63 2 140 l0 140 55 0 55 0 0 -431z m-4674
376 c97 -29 177 -112 210 -220 21 -68 29 -217 15 -289 -22 -121 -97 -229 -177
-258 -19 -6 -34 -15 -34 -18 0 -4 53 -19 117 -34 65 -15 121 -30 125 -32 8 -5
-21 -94 -31 -94 -15 0 -467 138 -501 153 -138 60 -203 186 -203 392 1 214 75
344 226 396 64 23 185 24 253 4z m1102 -37 l-3 -53 -50 0 -50 0 -3 53 -3 52
56 0 56 0 -3 -52z m2920 0 l-3 -53 -52 -3 -53 -3 0 55 0 56 56 0 55 0 -3 -52z
m-2395 -174 l47 -16 0 -47 0 -48 -52 18 c-114 39 -214 14 -258 -64 -21 -36
-24 -55 -24 -137 0 -79 4 -102 23 -138 40 -78 150 -104 266 -63 l55 19 0 -42
c0 -41 -2 -44 -42 -62 -63 -28 -218 -27 -273 3 -54 28 -89 68 -117 128 -18 41
-22 68 -23 150 0 94 2 105 33 168 35 71 74 106 149 133 52 18 160 17 216 -2z
m1489 6 l78 0 0 -40 0 -40 -50 0 -51 0 16 -30 c8 -16 15 -49 15 -74 0 -132
-100 -205 -262 -193 -77 6 -78 6 -84 -19 -11 -43 6 -49 166 -54 166 -6 188
-13 223 -81 23 -43 18 -120 -10 -157 -47 -64 -174 -100 -316 -89 -100 8 -152
24 -188 58 -53 49 -33 141 39 175 l38 19 -28 23 c-39 33 -38 80 3 127 l32 36
-27 28 c-35 37 -53 120 -37 177 16 58 46 92 105 121 47 22 59 24 155 19 57 -3
139 -6 183 -6z m2053 -9 c85 -39 123 -107 132 -237 l6 -84 -203 0 -203 0 6
-36 c9 -54 40 -107 76 -128 61 -35 177 -31 286 10 12 5 15 -2 15 -34 0 -38 -3
-41 -47 -63 -41 -20 -63 -24 -153 -24 -89 0 -111 3 -145 22 -92 50 -134 123
-142 251 -9 124 15 201 81 267 28 28 67 56 86 62 57 18 160 15 205 -6z m-4705
-216 c0 -243 4 -266 52 -286 35 -14 118 -7 171 15 l37 16 0 240 0 240 55 0 55
0 0 -300 0 -300 -45 0 c-39 0 -45 3 -51 25 l-6 24 -51 -26 c-75 -38 -176 -43
-237 -11 -77 39 -80 54 -80 341 l0 247 50 0 50 0 0 -225z m640 -75 l0 -300
-55 0 -55 0 0 300 0 300 55 0 55 0 0 -300z m1140 294 c0 -3 -48 -63 -106 -132
-58 -70 -108 -132 -111 -139 -2 -6 50 -79 116 -162 67 -83 121 -153 121 -156
0 -3 -26 -5 -58 -5 l-58 0 -117 149 c-64 82 -117 155 -117 160 0 6 50 74 112
151 l112 140 53 0 c29 0 53 -3 53 -6z m1140 -228 c0 -287 -2 -281 112 -280 45
0 87 7 111 17 l37 17 0 240 0 240 55 0 55 0 0 -301 0 -300 -47 3 c-41 3 -48 6
-51 26 -2 12 -5 22 -6 22 -2 0 -25 -12 -52 -27 -43 -25 -60 -28 -136 -28 -97
0 -126 13 -163 76 -18 31 -20 55 -23 267 -2 128 -1 240 2 248 4 9 21 14 56 14
l50 0 0 -234z m638 -68 l2 -298 -55 0 -55 0 0 301 0 300 53 -3 52 -3 3 -297z"/>
<path d="M1112 6114 l3 -309 107 1 c121 2 165 14 213 56 55 48 70 102 70 258
0 126 -2 139 -26 185 -18 35 -39 59 -74 80 -46 28 -55 30 -172 34 l-123 3 2
-308z"/>
<path d="M1908 6214 c-30 -16 -57 -60 -69 -111 l-7 -33 144 0 c161 0 155 -3
134 72 -16 57 -60 88 -123 88 -29 -1 -64 -7 -79 -16z"/>
<path d="M2560 5973 c-14 -2 -40 -6 -58 -9 -48 -8 -72 -36 -72 -85 0 -52 12
-73 50 -89 36 -15 113 -7 147 15 21 14 23 23 23 95 l0 80 -32 -1 c-18 -1 -44
-3 -58 -6z"/>
<path d="M5099 6215 c-34 -18 -56 -53 -68 -104 l-9 -41 145 0 145 0 -7 43 c-9
53 -18 70 -51 96 -32 25 -114 28 -155 6z"/>
<path d="M8012 5970 c-29 -4 -63 -15 -77 -24 -49 -32 -40 -124 15 -154 29 -15
106 -10 148 10 26 13 27 17 30 96 l3 82 -33 -1 c-18 -1 -57 -5 -86 -9z"/>
<path d="M8936 6199 c-31 -27 -56 -78 -56 -116 0 -10 35 -13 140 -13 l140 0 0
29 c0 42 -16 78 -46 106 -22 21 -37 25 -85 25 -51 0 -63 -4 -93 -31z"/>
<path d="M7075 4783 c-79 -22 -109 -89 -103 -236 4 -115 15 -143 71 -178 41
-26 158 -24 200 4 l27 17 0 185 0 185 -27 11 c-32 13 -139 20 -168 12z"/>
<path d="M2490 4984 c-114 -49 -166 -189 -142 -382 14 -113 46 -181 104 -219
34 -23 54 -29 117 -31 97 -4 151 21 198 91 43 64 57 138 50 269 -4 90 -9 117
-32 163 -41 85 -109 125 -209 125 -28 -1 -67 -8 -86 -16z"/>
<path d="M5534 4784 c-79 -39 -71 -177 12 -204 46 -15 109 -7 143 18 21 15 27
29 29 67 2 27 1 59 -3 72 -13 54 -115 80 -181 47z"/>
<path d="M5464 4295 c-33 -33 -30 -84 6 -102 31 -16 200 -17 252 -3 58 17 77
71 38 110 -18 18 -33 20 -145 20 -121 0 -127 -1 -151 -25z"/>
<path d="M7683 4770 c-34 -21 -56 -56 -68 -107 l-7 -33 145 0 144 0 -7 43
c-13 84 -48 117 -125 117 -32 0 -62 -7 -82 -20z"/>
</g>
</svg>
